{"title":"Havana 1990 DVD9rip English Klam","uid":6902758,"size":2317476927,"categoryP":"video","categoryS":"movies","magnet":"?xt=urn:btih:28823e4e2ed020ff3b96a001be5f88e7d42027e0&amp;dn=Havana+1990+DVD9rip+English+Klam&amp;tr=udp%3A%2F%2Ftracker.openbittorrent.com%3A80&amp;tr=udp%3A%2F%2Fopen.demonii.com%3A1337&amp;tr=udp%3A%2F%2Ftracker.coppersurfer.tk%3A6969&amp;tr=udp%3A%2F%2Fexodus.desync.com%3A6969","seeders":2,"leechers":1,"uploader":"Klambake","files":-1,"time":1324464268,"description":"With: Robert Redford, Lena Olin and Alan Arkin\n\nBeroepsgokker Jack Weil tracht in een casino de slag van zijn leven te slaan. Maar hij heeft geen rekening gehouden met zijn liefde voor de beeldschone vrouw van de revolutionair Arturo Duran. Als Arturo door de politie is opgepakt raakt Jack geheel in de ban van Roberta en verspeelt hij zijn laatste kans om een grote slag te slaan.\n\nCuba, December 1958: The professional gambler Jack visits Havana to organize a big Poker game. On the ship he meets Roberta and falls in love with her... \n\n------------------------ Dutch Friends ------------------------\n---------------------------------------------------------------\n- Bezoek ook eens mijn vrienden op: &lt;a href=&quot; http://www.Film-Test.nl&quot; rel=&quot;nofollow&quot; target=&quot;_NEW&quot;&gt; http://www.Film-Test.nl&lt;/a&gt; --\n----- voor mijn Nederlandse Sync. ondertitels ---- en meer ----\n------- http://www.Film-Test.nl ---- voor Films en meer -------\n---------------------------------------------------------------\n\nGeneral:\n\nComplete name                    : Havana\\Havana.avi\nFormat                           : AVI\nFormat/Info                      : Audio Video Interleave\nFile size                        : 2.15 GiB\nDuration                         : 2h 18mn\nOverall bit rate                 : 2227 Kbps\n\nVideo:\n\nFormat                           : MPEG-4 Visual\nFormat profile                   : Simple@L3\nFormat settings, BVOP            : No\nFormat settings, QPel            : No\nFormat settings, GMC             : No warppoints\nFormat settings, Matrix          : Default (H.263)\nCodec ID                         : XVID\nCodec ID/Hint                    : XviD\nDuration                         : 2h 18mn\nBit rate                         : 1 832 Kbps\nWidth                            : 652 pixels\nHeight                           : 352 pixels\nDisplay aspect ratio             : 1.852\nFrame rate                       : 25.000 fps\nColor space                      : YUV\nChroma subsampling               : 4:2:0\nBit depth                        : 8 bits\nScan type                        : Progressive\nCompression mode                 : Lossy\nBits/(Pixel*Frame)               : 0.319\nStream size                      : 1.77 GiB (82%)\nWriting library                  : XviD 1.1.2 (UTC 2006-11-01)\n\nAudio:\n\nFormat                           : AC-3\nFormat/Info                      : Audio Coding 3\nMode extension                   : CM (complete main)\nCodec ID                         : 2000\nDuration                         : 2h 18mn\nBit rate mode                    : Constant\nBit rate                         : 384 Kbps\nChannel(s)                       : 6 channels\nChannel positions                : Front: L C R, Side: L R, LFE\nSampling rate                    : 48.0 KHz\nBit depth                        : 16 bits\nCompression mode                 : Lossy\nStream size                      : 380 MiB (17%)\nAlignment                        : Aligned on interleaves\nInterleave, duration             : 32 ms (0.80 video frame)\nInterleave, preload duration     : 320 ms\n\n","torrent":{"xt":"urn:btih:28823e4e2ed020ff3b96a001be5f88e7d42027e0","amp;dn":"Havana+1990+DVD9rip+English+Klam","amp;tr":["udp%3A%2F%2Ftracker.openbittorrent.com%3A80","udp%3A%2F%2Fopen.demonii.com%3A1337","udp%3A%2F%2Ftracker.coppersurfer.tk%3A6969","udp%3A%2F%2Fexodus.desync.com%3A6969"],"infoHash":"28823e4e2ed020ff3b96a001be5f88e7d42027e0","infoHashBuffer":{"type":"Buffer","data":[40,130,62,78,46,208,32,255,59,150,160,1,190,95,136,231,212,32,39,224]},"announce":[],"urlList":[]}}